<svg xmlns="http://www.w3.org/2000/svg" xml:space="preserve" width="1500" height="1500" viewBox="0 0 1500 1500" data-version="1" data-id="lg_8s2bO9SxZG1eMdTTGf" x="0" y="0"><rect width="1500" height="1500" id="background" stroke="transparent" fill="#f1f1f1"></rect><g id="outer-wrapper" data-padding="20" transform="matrix(1.5873015873015872,0,0,1.5873015873015872,-440.47619047619037,-440.47619047619037)"><g id="inner-wrapper" transform="matrix(0.9682539682539683,0,0,0.9682539682539683,10,1.396825396825399)"><rect width="630.398" height="87.995" x="49.063295081967226" y="329.2200409836066" fill="none" rx="0" ry="0" transform="translate(400 399.93)"></rect><path d="M456.29229508196715 797.6080409836065V743.8080409836066H472.1122950819671Q483.17229508196715 743.8080409836066 488.3422950819671 745.3680409836065Q494.2422950819671 747.1880409836066 497.4522950819671 750.0380409836066T502.4922950819671 755.9380409836066Q506.2122950819671 762.1280409836065 506.2122950819671 770.0080409836066Q506.2122950819671 782.3980409836065 497.3222950819671 790.0780409836066Q491.0122950819671 795.5980409836066 482.4522950819671 796.8880409836065Q477.7022950819671 797.6080409836065 469.1422950819671 797.6080409836065ZM475.68229508196714 746.6980409836067V794.4480409836067Q476.29229508196715 794.4880409836067 476.7822950819671 794.4880409836067H477.6622950819671Q487.9622950819671 794.4880409836067 495.2622950819671 788.0680409836066Q502.9822950819671 781.2980409836066 502.9822950819671 770.0780409836066Q502.9822950819671 763.0080409836066 499.6022950819671 757.3380409836066Q494.69229508196713 749.0880409836066 484.0922950819671 747.3380409836066Q480.63229508196713 746.7680409836066 475.68229508196714 746.6980409836067M551.4322950819671 788.3680409836066Q552.9222950819671 788.3680409836066 552.9222950819671 789.7380409836067Q552.9222950819671 790.7680409836066 551.5922950819671 792.1680409836067Q545.5822950819671 798.3280409836067 535.1222950819672 798.3280409836067Q525.7322950819671 798.3280409836067 519.3022950819671 792.6680409836067Q512.6522950819672 786.7680409836066 512.6522950819672 777.7580409836066Q512.6522950819672 768.5580409836066 518.6622950819672 762.6280409836066Q525.0122950819671 756.3180409836066 535.5422950819672 756.3180409836066Q543.9822950819671 756.3180409836066 549.7222950819671 761.4480409836067Q555.9222950819671 766.9580409836067 555.9222950819671 775.9380409836067Q555.9222950819671 777.2280409836067 555.8522950819671 778.6680409836067H530.7522950819671V794.9880409836067Q533.3422950819671 795.5180409836066 536.5722950819671 795.5180409836066Q543.4122950819672 795.5180409836066 548.2422950819671 790.9880409836067Q549.2322950819671 790.0080409836066 549.6522950819672 789.4380409836067Q550.5222950819671 788.3680409836066 551.4322950819671 788.3680409836066M541.282295081967 775.8980409836066V759.8180409836066Q538.8122950819671 759.0880409836066 535.6922950819671 759.0880409836066Q532.5822950819671 759.0880409836066 530.7522950819671 759.5080409836066V775.8980409836066ZM580.0222950819671 799.3180409836066L559.1422950819672 756.9980409836066H576.3722950819671L586.7122950819671 778.3280409836066L593.2122950819671 765.3980409836066Q595.2322950819671 761.2580409836066 595.7422950819671 759.2380409836067Q596.2522950819671 757.2280409836067 596.7722950819671 756.7680409836066Q597.282295081967 756.3180409836066 598.0222950819671 756.3180409836066T599.1822950819671 756.8080409836066Q599.6022950819671 757.3080409836066 599.6022950819671 757.7980409836066T599.5122950819671 758.7880409836066Q599.4122950819672 759.2780409836066 599.1422950819671 760.1180409836065Q598.5722950819671 761.6780409836066 596.7522950819671 765.5180409836066ZM632.0822950819671 798.3280409836066Q626.8022950819671 798.3280409836066 621.8522950819671 795.9380409836067V797.6080409836067H606.2322950819671V743.8080409836066H621.8522950819671V758.9380409836067Q626.6822950819671 756.3180409836066 631.9722950819671 756.3180409836066Q637.2522950819671 756.3180409836066 641.2522950819671 757.8780409836066Q645.2422950819671 759.4280409836067 648.092295081967 762.1680409836067Q653.9822950819671 767.9480409836067 653.9822950819671 776.9580409836067Q653.9822950819671 786.0480409836066 648.172295081967 792.0580409836067Q642.162295081967 798.3280409836067 632.082295081967 798.3280409836067M631.9722950819671 759.0880409836067Q626.342295081967 759.0880409836067 621.852295081967 762.2080409836067V792.7080409836067Q626.842295081967 795.5180409836066 633.032295081967 795.5180409836066H634.0222950819671Q634.4822950819671 795.5180409836066 634.902295081967 795.4380409836067V759.3180409836066Q633.4522950819671 759.0880409836066 631.9722950819671 759.0880409836066M670.822295081967 806.5780409836066Q673.1422950819671 805.8580409836065 674.052295081967 804.7180409836067Q675.3422950819671 803.1980409836067 677.1722950819671 799.2480409836066L678.042295081967 797.2280409836067L657.322295081967 756.9980409836066H674.6222950819671L685.4222950819671 779.9680409836067L691.6622950819672 765.3980409836066Q693.3722950819671 761.4080409836066 693.9022950819672 759.3180409836066T694.9422950819671 756.7680409836066Q695.4622950819671 756.3180409836066 696.2022950819671 756.3180409836066T697.3622950819672 756.7680409836066Q697.7822950819672 757.2280409836067 697.7822950819672 757.6880409836067Q697.7822950819672 758.1380409836066 697.6822950819671 758.6580409836067Q697.5922950819672 759.1680409836067 697.3022950819671 760.0180409836066Q697.0222950819672 760.8780409836068 696.4822950819671 762.1680409836067L680.7022950819671 798.7480409836066Q677.8922950819672 805.3680409836066 675.3022950819673 808.0680409836066Q673.1022950819672 810.4580409836067 670.8422950819672 810.4580409836067Q668.5722950819672 810.4580409836067 668.5722950819672 808.8780409836066Q668.5722950819672 807.3080409836066 670.8222950819672 806.5780409836066M729.8422950819672 797.6080409836065V795.0980409836066Q724.9722950819672 798.3280409836066 719.0422950819673 798.3280409836066Q711.1722950819671 798.3280409836066 706.4222950819671 794.3780409836066Q701.4822950819672 790.3080409836066 701.4822950819672 783.0880409836066Q701.4822950819672 776.6980409836067 706.3822950819672 772.5880409836066Q711.4022950819672 768.4480409836067 719.5722950819672 768.4480409836067Q725.0522950819673 768.4480409836067 729.8422950819672 770.5380409836066V760.0780409836066Q726.3822950819672 759.0880409836066 723.7422950819671 759.0880409836066T719.2722950819671 759.3180409836066T715.8122950819671 760.0080409836066Q712.2722950819671 760.9880409836067 710.4522950819671 762.6680409836067Q709.3822950819672 763.6580409836067 708.5122950819671 763.6580409836067Q707.6322950819672 763.6580409836067 707.1822950819671 763.2180409836067Q706.7222950819671 762.7780409836066 706.7222950819671 762.2480409836066T706.9122950819672 761.2780409836066T707.6322950819672 760.3880409836066Q708.7822950819672 759.3980409836066 711.4422950819671 758.4080409836066Q716.9522950819671 756.3180409836066 722.5022950819672 756.3180409836066Q739.3822950819672 756.3180409836066 744.0622950819672 764.3780409836066Q746.1122950819672 767.9480409836067 746.1122950819672 773.7680409836066V797.6080409836065ZM729.8422950819672 791.8280409836066V773.4980409836066Q725.0522950819673 771.1780409836067 720.3022950819673 771.1780409836067Q719.5422950819673 771.1780409836067 718.8522950819672 771.2980409836066V795.4780409836067Q719.0422950819673 795.5180409836066 719.2722950819673 795.5180409836066H719.7322950819672Q724.9422950819671 795.5180409836066 729.8422950819672 791.8280409836067M767.6622950819672 750.3480409836067Q763.7522950819672 750.3480409836067 761.5422950819673 748.5980409836067Q759.3422950819672 746.8480409836067 759.3422950819672 743.9980409836066Q759.3422950819672 741.5980409836067 761.7722950819673 739.8880409836066Q764.3622950819672 738.0680409836066 767.2522950819673 738.0680409836066T771.7122950819672 738.6380409836066Q773.2922950819673 739.2080409836067 774.3922950819672 740.1180409836066Q776.6022950819672 741.9780409836067 776.6022950819672 744.4480409836067Q776.6022950819672 746.9280409836067 774.0922950819672 748.6380409836066T767.6622950819672 750.3480409836066M749.4922950819672 805.3280409836066Q750.3622950819672 805.3280409836066 751.4122950819672 806.2380409836067Q752.4522950819672 807.1480409836067 753.1022950819672 807.4980409836066Q754.5822950819672 808.2580409836066 756.5222950819673 808.2580409836066T759.7922950819673 808.0680409836066V756.9980409836066H776.0722950819672L776.0322950819672 793.5780409836066Q776.0322950819672 802.4380409836067 770.5922950819672 806.9580409836067Q765.6522950819672 811.0280409836066 757.1322950819672 811.0280409836066Q752.7622950819672 811.0280409836066 750.9022950819672 810.1180409836065Q747.8222950819672 808.6380409836065 747.8222950819672 806.9780409836067Q747.8222950819672 805.3280409836066 749.4922950819672 805.3280409836066M813.9022950819672 797.6080409836065V795.0980409836066Q809.0322950819673 798.3280409836066 803.1022950819672 798.3280409836066Q795.2322950819672 798.3280409836066 790.4822950819672 794.3780409836066Q785.5322950819673 790.3080409836066 785.5322950819673 783.0880409836066Q785.5322950819673 776.6980409836067 790.4422950819672 772.5880409836066Q795.4622950819672 768.4480409836067 803.6322950819672 768.4480409836067Q809.1122950819672 768.4480409836067 813.9022950819672 770.5380409836066V760.0780409836066Q810.4422950819672 759.0880409836066 807.8022950819673 759.0880409836066Q805.1522950819672 759.0880409836066 803.3322950819672 759.3180409836066Q801.5022950819672 759.5480409836066 799.8722950819672 760.0080409836066Q796.3322950819672 760.9880409836067 794.5122950819672 762.6680409836067Q793.4422950819671 763.6580409836067 792.5722950819672 763.6580409836067Q791.6922950819671 763.6580409836067 791.2422950819672 763.2180409836067Q790.7822950819673 762.7780409836066 790.7822950819673 762.2480409836066T790.9722950819672 761.2780409836066T791.6922950819672 760.3880409836066Q792.8422950819672 759.3980409836066 795.5022950819673 758.4080409836066Q801.0122950819673 756.3180409836066 806.5622950819672 756.3180409836066Q823.4422950819672 756.3180409836066 828.1222950819672 764.3780409836066Q830.1722950819673 767.9480409836067 830.1722950819673 773.7680409836066V797.6080409836065ZM813.9022950819672 791.8280409836066V773.4980409836066Q809.1122950819672 771.1780409836067 804.3622950819672 771.1780409836067Q803.6022950819672 771.1780409836067 802.9122950819672 771.2980409836066V795.4780409836067Q803.1022950819672 795.5180409836066 803.3322950819672 795.5180409836066H803.7922950819673Q809.0022950819672 795.5180409836066 813.9022950819672 791.8280409836067M849.1522950819672 806.5780409836067Q851.4722950819672 805.8580409836067 852.3822950819672 804.7180409836067Q853.6722950819673 803.1980409836067 855.5022950819673 799.2480409836066L856.3722950819672 797.2280409836067L835.6522950819672 756.9980409836066H852.9522950819672L863.7522950819673 779.9680409836067L869.9822950819673 765.3980409836066Q871.7022950819673 761.4080409836066 872.2322950819673 759.3180409836066T873.2722950819673 756.7680409836066Q873.7922950819673 756.3180409836066 874.5322950819673 756.3180409836066T875.6922950819674 756.7680409836066Q876.1122950819673 757.2280409836067 876.1122950819673 757.6880409836067Q876.1122950819673 758.1380409836066 876.0122950819673 758.6580409836067Q875.9222950819674 759.1680409836067 875.6322950819673 760.0180409836066Q875.3522950819673 760.8780409836068 874.8122950819672 762.1680409836067L859.0322950819673 798.7480409836066Q856.2222950819673 805.3680409836066 853.6322950819674 808.0680409836066Q851.4322950819674 810.4580409836067 849.1722950819674 810.4580409836067Q846.9022950819674 810.4580409836067 846.9022950819674 808.8780409836066Q846.9022950819674 807.3080409836066 849.1522950819674 806.5780409836066M880.4022950819674 793.4680409836067Q879.8322950819675 791.9380409836067 879.8322950819675 790.2680409836066T880.5022950819673 787.2080409836067Q881.1622950819674 785.8180409836066 882.3822950819674 784.7580409836066Q884.9722950819673 782.4380409836067 888.8422950819674 782.4380409836067Q892.8422950819674 782.4380409836067 895.3122950819675 785.0580409836066Q897.5922950819674 787.4580409836067 897.5922950819674 790.6880409836067T895.0022950819673 796.0880409836066Q892.3422950819674 798.3280409836066 888.6222950819674 798.3280409836066Q882.3022950819673 798.3280409836066 880.4022950819674 793.4680409836067M923.9822950819673 759.3980409836066V795.1780409836067Q925.7722950819673 795.5180409836066 927.5722950819675 795.5180409836066Q929.3822950819674 795.5180409836066 931.0722950819675 795.2280409836067Q932.7622950819675 794.9480409836067 934.2822950819675 794.4180409836066Q937.5122950819675 793.2780409836066 939.4922950819675 791.5280409836066Q940.9022950819674 790.3080409836066 941.5422950819675 790.3080409836066Q942.9922950819675 790.3080409836066 942.9922950819675 791.5980409836066Q942.9922950819675 792.8980409836066 940.6322950819674 794.6780409836066Q935.1622950819674 798.3280409836066 927.4822950819675 798.3280409836066Q917.4822950819675 798.3280409836066 911.3222950819675 792.3280409836066Q905.2722950819675 786.3880409836065 905.2722950819675 776.9280409836066Q905.2722950819675 767.9480409836066 911.7022950819676 762.0980409836066Q918.0822950819675 756.3180409836066 927.7422950819675 756.3180409836066Q933.2622950819675 756.3180409836066 938.3522950819674 758.5980409836066Q942.2322950819675 760.2680409836066 942.2322950819675 762.0580409836066Q942.2322950819675 762.8180409836066 941.7922950819675 763.2180409836067T940.8222950819675 763.6180409836065Q940.0222950819675 763.6180409836065 938.7722950819675 762.7380409836067Q936.3022950819675 760.3880409836065 931.4322950819674 759.4280409836066Q929.6822950819674 759.0880409836066 927.5922950819674 759.0880409836066T923.9822950819673 759.3980409836066M948.1622950819674 777.0780409836066Q948.1622950819674 772.5080409836066 949.8222950819672 768.7680409836066Q951.4722950819673 765.0180409836066 954.3622950819672 762.2480409836066Q960.5922950819672 756.3180409836066 970.0222950819672 756.3180409836066Q979.6422950819673 756.3180409836066 985.6922950819672 762.4780409836067Q991.4722950819672 768.2880409836066 991.4722950819672 777.1880409836067Q991.4722950819672 786.1280409836066 985.5422950819672 792.1280409836066Q979.4222950819673 798.3280409836066 969.8722950819673 798.3280409836066Q960.5622950819672 798.3280409836066 954.4322950819671 792.4380409836067Q948.1622950819672 786.3580409836067 948.1622950819672 777.0780409836066M968.8122950819671 759.1280409836066V795.4780409836067Q969.1122950819671 795.5180409836066 969.4222950819673 795.5180409836066H969.9522950819672Q977.6322950819671 795.5180409836066 982.8422950819671 790.7680409836066Q988.3922950819671 785.6280409836068 988.3922950819671 777.3080409836067Q988.3922950819671 769.1680409836067 983.182295081967 764.1080409836068Q978.0522950819671 759.0880409836068 969.912295081967 759.0880409836068H969.3422950819671Q969.0722950819671 759.0880409836068 968.8122950819671 759.1280409836068M1045.232295081967 767.4980409836068Q1045.312295081967 768.4080409836067 1045.312295081967 769.3180409836068V797.6080409836068H1029.002295081967V760.7280409836068Q1028.582295081967 760.5380409836068 1028.0122950819673 760.5380409836068H1026.792295081967Q1023.8322950819671 760.5380409836068 1019.8722950819671 764.6080409836068Q1018.662295081967 765.8580409836068 1017.5522950819671 767.3780409836068V797.6080409836068H1001.202295081967V756.9980409836068H1017.5522950819671V763.1180409836068Q1023.982295081967 756.3180409836068 1031.932295081967 756.3180409836068Q1042.1922950819671 756.3180409836068 1044.5922950819672 763.9180409836067Q1047.8622950819672 760.1580409836067 1051.792295081967 758.2380409836068Q1055.732295081967 756.3180409836068 1059.7222950819669 756.3180409836068Q1066.5322950819668 756.3180409836068 1069.8022950819673 759.5480409836068T1073.0722950819672 769.3180409836068V797.6080409836068H1056.7622950819673V760.6880409836067Q1056.412295081967 760.5380409836068 1055.042295081967 760.5380409836068Q1053.682295081967 760.5380409836068 1052.522295081967 761.0480409836068T1050.142295081967 762.4780409836068Q1047.482295081967 764.4180409836067 1045.232295081967 767.4980409836068 "></path></g><rect width="630" height="88" x="435" y="706" id="space-saver" fill="transparent" stroke="transparent"></rect></g></svg>