<svg xmlns="http://www.w3.org/2000/svg" xml:space="preserve" width="1500" height="88" viewBox="0 0 1500 88" data-version="1" data-id="lg_8s2bO9SxZG1eMdTTGf"><g id="outer-wrapper" data-padding="20" transform="matrix(1,0,0,1,0,0)"><g id="inner-wrapper" transform="matrix(0.9682539682539683,0,0,0.9682539682539683,10,1.396825396825399)"><rect width="630.398" height="87.995" x="49.063295081967226" y="-399.9275" fill="none" rx="0" ry="0" transform="translate(400 399.93)"></rect><path d="M456.29229508196715 68.46049999999997V14.660499999999956H472.1122950819671Q483.17229508196715 14.660499999999956 488.3422950819671 16.22049999999996Q494.2422950819671 18.040499999999952 497.4522950819671 20.890499999999975T502.4922950819671 26.790499999999952Q506.2122950819671 32.98049999999995 506.2122950819671 40.860499999999945Q506.2122950819671 53.25049999999993 497.3222950819671 60.93049999999994Q491.0122950819671 66.45049999999992 482.4522950819671 67.74049999999994Q477.7022950819671 68.46049999999997 469.1422950819671 68.46049999999997ZM475.68229508196714 17.5505V65.3005Q476.29229508196715 65.34050000000002 476.7822950819671 65.34050000000002H477.6622950819671Q487.9622950819671 65.34050000000002 495.2622950819671 58.920500000000004Q502.9822950819671 52.15050000000002 502.9822950819671 40.930499999999995Q502.9822950819671 33.8605 499.6022950819671 28.190499999999986Q494.69229508196713 19.940499999999986 484.0922950819671 18.190499999999986Q480.63229508196713 17.620499999999993 475.68229508196714 17.5505M551.4322950819671 59.220500000000015Q552.9222950819671 59.220500000000015 552.9222950819671 60.59050000000002Q552.9222950819671 61.62049999999999 551.5922950819671 63.02050000000003Q545.5822950819671 69.18050000000005 535.1222950819672 69.18050000000005Q525.7322950819671 69.18050000000005 519.3022950819671 63.52050000000003Q512.6522950819672 57.62050000000005 512.6522950819672 48.6105Q512.6522950819672 39.41050000000001 518.6622950819672 33.480500000000006Q525.0122950819671 27.170500000000004 535.5422950819672 27.170500000000004Q543.9822950819671 27.170500000000004 549.7222950819671 32.3005Q555.9222950819671 37.81049999999999 555.9222950819671 46.79050000000001Q555.9222950819671 48.08050000000003 555.8522950819671 49.52050000000003H530.7522950819671V65.84050000000002Q533.3422950819671 66.37049999999999 536.5722950819671 66.37049999999999Q543.4122950819672 66.37049999999999 548.2422950819671 61.84050000000002Q549.2322950819671 60.8605 549.6522950819672 60.29050000000001Q550.5222950819671 59.220500000000015 551.4322950819671 59.220500000000015M541.282295081967 46.75049999999999V30.670500000000004Q538.8122950819671 29.940499999999986 535.6922950819671 29.940499999999986Q532.5822950819671 29.940499999999986 530.7522950819671 30.360500000000002V46.75049999999999ZM580.0222950819671 70.1705L559.1422950819672 27.85050000000001H576.3722950819671L586.7122950819671 49.180499999999995L593.2122950819671 36.25049999999999Q595.2322950819671 32.1105 595.7422950819671 30.090499999999963Q596.2522950819671 28.080499999999972 596.7722950819671 27.620499999999936Q597.282295081967 27.170499999999947 598.0222950819671 27.170499999999947T599.1822950819671 27.660499999999956Q599.6022950819671 28.160499999999956 599.6022950819671 28.650499999999965T599.5122950819671 29.640499999999975Q599.4122950819672 30.130499999999984 599.1422950819671 30.97049999999996Q598.5722950819671 32.53049999999996 596.7522950819671 36.370499999999936ZM632.0822950819671 69.1805Q626.8022950819671 69.1805 621.8522950819671 66.79050000000001V68.46050000000002H606.2322950819671V14.660500000000013H621.8522950819671V29.79050000000001Q626.6822950819671 27.170500000000004 631.9722950819671 27.170500000000004Q637.2522950819671 27.170500000000004 641.2522950819671 28.730500000000006Q645.2422950819671 30.280500000000018 648.092295081967 33.02050000000003Q653.9822950819671 38.8005 653.9822950819671 47.81050000000005Q653.9822950819671 56.90050000000002 648.172295081967 62.91050000000007Q642.162295081967 69.18050000000005 632.082295081967 69.18050000000005M631.9722950819671 29.940500000000043Q626.342295081967 29.940500000000043 621.852295081967 33.06050000000005V63.56050000000005Q626.842295081967 66.37050000000005 633.032295081967 66.37050000000005H634.0222950819671Q634.4822950819671 66.37050000000005 634.902295081967 66.29050000000007V30.170500000000004Q633.4522950819671 29.940499999999986 631.9722950819671 29.940499999999986M670.822295081967 77.4305Q673.1422950819671 76.71049999999997 674.052295081967 75.57049999999998Q675.3422950819671 74.0505 677.1722950819671 70.10049999999995L678.042295081967 68.08049999999997L657.322295081967 27.850499999999954H674.6222950819671L685.4222950819671 50.82049999999998L691.6622950819672 36.25049999999999Q693.3722950819671 32.26049999999998 693.9022950819672 30.170500000000004T694.9422950819671 27.620499999999993Q695.4622950819671 27.170500000000004 696.2022950819671 27.170500000000004T697.3622950819672 27.620499999999993Q697.7822950819672 28.080499999999972 697.7822950819672 28.54050000000001Q697.7822950819672 28.990499999999997 697.6822950819671 29.510500000000036Q697.5922950819672 30.020500000000027 697.3022950819671 30.87050000000005Q697.0222950819672 31.730500000000063 696.4822950819671 33.02050000000003L680.7022950819671 69.60050000000001Q677.8922950819672 76.22050000000002 675.3022950819673 78.9205Q673.1022950819672 81.31049999999999 670.8422950819672 81.31049999999999Q668.5722950819672 81.31049999999999 668.5722950819672 79.7305Q668.5722950819672 78.16050000000001 670.8222950819672 77.4305M729.8422950819672 68.46049999999997V65.95049999999998Q724.9722950819672 69.1805 719.0422950819673 69.1805Q711.1722950819671 69.1805 706.4222950819671 65.2305Q701.4822950819672 61.16050000000001 701.4822950819672 53.940499999999986Q701.4822950819672 47.5505 706.3822950819672 43.440499999999986Q711.4022950819672 39.3005 719.5722950819672 39.3005Q725.0522950819673 39.3005 729.8422950819672 41.390499999999975V30.930499999999995Q726.3822950819672 29.940499999999986 723.7422950819671 29.940499999999986T719.2722950819671 30.170500000000004T715.8122950819671 30.860500000000002Q712.2722950819671 31.84050000000002 710.4522950819671 33.52050000000003Q709.3822950819672 34.510500000000036 708.5122950819671 34.510500000000036Q707.6322950819672 34.510500000000036 707.1822950819671 34.07050000000004Q706.7222950819671 33.63050000000004 706.7222950819671 33.10050000000001T706.9122950819672 32.130499999999984T707.6322950819672 31.240499999999997Q708.7822950819672 30.250499999999988 711.4422950819671 29.26049999999998Q716.9522950819671 27.170500000000004 722.5022950819672 27.170500000000004Q739.3822950819672 27.170500000000004 744.0622950819672 35.230500000000006Q746.1122950819672 38.8005 746.1122950819672 44.62049999999999V68.46049999999997ZM729.8422950819672 62.680499999999995V44.35050000000001Q725.0522950819673 42.03050000000002 720.3022950819673 42.03050000000002Q719.5422950819673 42.03050000000002 718.8522950819672 42.15050000000002V66.33050000000003Q719.0422950819673 66.37050000000005 719.2722950819673 66.37050000000005H719.7322950819672Q724.9422950819671 66.37050000000005 729.8422950819672 62.68050000000005M767.6622950819672 21.200500000000034Q763.7522950819672 21.200500000000034 761.5422950819673 19.450500000000034Q759.3422950819672 17.700500000000034 759.3422950819672 14.850500000000011Q759.3422950819672 12.450500000000034 761.7722950819673 10.740499999999997Q764.3622950819672 8.920500000000004 767.2522950819673 8.920500000000004T771.7122950819672 9.490499999999997Q773.2922950819673 10.06049999999999 774.3922950819672 10.970500000000015Q776.6022950819672 12.830500000000029 776.6022950819672 15.3005Q776.6022950819672 17.780500000000018 774.0922950819672 19.490499999999997T767.6622950819672 21.200499999999977M749.4922950819672 76.1805Q750.3622950819672 76.1805 751.4122950819672 77.09050000000002Q752.4522950819672 78.00050000000005 753.1022950819672 78.35050000000001Q754.5822950819672 79.1105 756.5222950819673 79.1105T759.7922950819673 78.9205V27.85050000000001H776.0722950819672L776.0322950819672 64.4305Q776.0322950819672 73.29050000000001 770.5922950819672 77.81049999999999Q765.6522950819672 81.88049999999998 757.1322950819672 81.88049999999998Q752.7622950819672 81.88049999999998 750.9022950819672 80.97049999999996Q747.8222950819672 79.49049999999994 747.8222950819672 77.83049999999997Q747.8222950819672 76.1805 749.4922950819672 76.1805M813.9022950819672 68.46049999999997V65.95049999999998Q809.0322950819673 69.1805 803.1022950819672 69.1805Q795.2322950819672 69.1805 790.4822950819672 65.2305Q785.5322950819673 61.16050000000001 785.5322950819673 53.940499999999986Q785.5322950819673 47.5505 790.4422950819672 43.440499999999986Q795.4622950819672 39.3005 803.6322950819672 39.3005Q809.1122950819672 39.3005 813.9022950819672 41.390499999999975V30.930499999999995Q810.4422950819672 29.940499999999986 807.8022950819673 29.940499999999986Q805.1522950819672 29.940499999999986 803.3322950819672 30.170500000000004Q801.5022950819672 30.400500000000022 799.8722950819672 30.860500000000002Q796.3322950819672 31.84050000000002 794.5122950819672 33.52050000000003Q793.4422950819671 34.510500000000036 792.5722950819672 34.510500000000036Q791.6922950819671 34.510500000000036 791.2422950819672 34.07050000000004Q790.7822950819673 33.63050000000004 790.7822950819673 33.10050000000001T790.9722950819672 32.130499999999984T791.6922950819672 31.240499999999997Q792.8422950819672 30.250499999999988 795.5022950819673 29.26049999999998Q801.0122950819673 27.170500000000004 806.5622950819672 27.170500000000004Q823.4422950819672 27.170500000000004 828.1222950819672 35.230500000000006Q830.1722950819673 38.8005 830.1722950819673 44.62049999999999V68.46049999999997ZM813.9022950819672 62.680499999999995V44.35050000000001Q809.1122950819672 42.03050000000002 804.3622950819672 42.03050000000002Q803.6022950819672 42.03050000000002 802.9122950819672 42.15050000000002V66.33050000000003Q803.1022950819672 66.37050000000005 803.3322950819672 66.37050000000005H803.7922950819673Q809.0022950819672 66.37050000000005 813.9022950819672 62.68050000000005M849.1522950819672 77.43050000000005Q851.4722950819672 76.71050000000002 852.3822950819672 75.57050000000004Q853.6722950819673 74.05050000000006 855.5022950819673 70.10050000000001L856.3722950819672 68.08050000000003L835.6522950819672 27.85050000000001H852.9522950819672L863.7522950819673 50.82049999999998L869.9822950819673 36.25049999999999Q871.7022950819673 32.26049999999998 872.2322950819673 30.170500000000004T873.2722950819673 27.620499999999993Q873.7922950819673 27.170500000000004 874.5322950819673 27.170500000000004T875.6922950819674 27.620499999999993Q876.1122950819673 28.080499999999972 876.1122950819673 28.54050000000001Q876.1122950819673 28.990499999999997 876.0122950819673 29.510500000000036Q875.9222950819674 30.020500000000027 875.6322950819673 30.87050000000005Q875.3522950819673 31.730500000000063 874.8122950819672 33.02050000000003L859.0322950819673 69.60050000000001Q856.2222950819673 76.22050000000002 853.6322950819674 78.9205Q851.4322950819674 81.31049999999999 849.1722950819674 81.31049999999999Q846.9022950819674 81.31049999999999 846.9022950819674 79.7305Q846.9022950819674 78.16050000000001 849.1522950819674 77.4305M880.4022950819674 64.32049999999998Q879.8322950819675 62.79050000000001 879.8322950819675 61.12049999999999T880.5022950819673 58.06049999999999Q881.1622950819674 56.670500000000004 882.3822950819674 55.6105Q884.9722950819673 53.29050000000001 888.8422950819674 53.29050000000001Q892.8422950819674 53.29050000000001 895.3122950819675 55.91050000000001Q897.5922950819674 58.31049999999999 897.5922950819674 61.54050000000001T895.0022950819673 66.94049999999999Q892.3422950819674 69.1805 888.6222950819674 69.1805Q882.3022950819673 69.1805 880.4022950819674 64.32049999999998M923.9822950819673 30.250499999999988V66.03050000000002Q925.7722950819673 66.37049999999999 927.5722950819675 66.37049999999999Q929.3822950819674 66.37049999999999 931.0722950819675 66.08049999999997Q932.7622950819675 65.8005 934.2822950819675 65.27049999999997Q937.5122950819675 64.13049999999998 939.4922950819675 62.380499999999984Q940.9022950819674 61.160499999999956 941.5422950819675 61.160499999999956Q942.9922950819675 61.160499999999956 942.9922950819675 62.45049999999998Q942.9922950819675 63.75049999999999 940.6322950819674 65.53049999999996Q935.1622950819674 69.18049999999994 927.4822950819675 69.18049999999994Q917.4822950819675 69.18049999999994 911.3222950819675 63.18049999999994Q905.2722950819675 57.24049999999994 905.2722950819675 47.78049999999996Q905.2722950819675 38.80049999999994 911.7022950819676 32.95049999999998Q918.0822950819675 27.170500000000004 927.7422950819675 27.170500000000004Q933.2622950819675 27.170500000000004 938.3522950819674 29.450499999999977Q942.2322950819675 31.120499999999993 942.2322950819675 32.910499999999956Q942.2322950819675 33.67049999999995 941.7922950819675 34.07049999999998T940.8222950819675 34.47049999999996Q940.0222950819675 34.47049999999996 938.7722950819675 33.59049999999996Q936.3022950819675 31.24049999999994 931.4322950819674 30.28049999999996Q929.6822950819674 29.940499999999986 927.5922950819674 29.940499999999986T923.9822950819673 30.250499999999988M948.1622950819674 47.930499999999995Q948.1622950819674 43.3605 949.8222950819672 39.62049999999999Q951.4722950819673 35.87049999999999 954.3622950819672 33.10050000000001Q960.5922950819672 27.170500000000004 970.0222950819672 27.170500000000004Q979.6422950819673 27.170500000000004 985.6922950819672 33.33050000000003Q991.4722950819672 39.14050000000003 991.4722950819672 48.04050000000001Q991.4722950819672 56.980500000000006 985.5422950819672 62.980500000000006Q979.4222950819673 69.1805 969.8722950819673 69.1805Q960.5622950819672 69.1805 954.4322950819671 63.29050000000001Q948.1622950819672 57.210500000000025 948.1622950819672 47.930499999999995M968.8122950819671 29.980500000000006V66.33050000000003Q969.1122950819671 66.37050000000005 969.4222950819673 66.37050000000005H969.9522950819672Q977.6322950819671 66.37050000000005 982.8422950819671 61.62050000000005Q988.3922950819671 56.48050000000006 988.3922950819671 48.16050000000007Q988.3922950819671 40.020500000000084 983.182295081967 34.96050000000008Q978.0522950819671 29.9405000000001 969.912295081967 29.9405000000001H969.3422950819671Q969.0722950819671 29.9405000000001 968.8122950819671 29.98050000000012M1045.232295081967 38.350500000000125Q1045.312295081967 39.26050000000015 1045.312295081967 40.17050000000012V68.46050000000014H1029.002295081967V31.580500000000143Q1028.582295081967 31.390500000000145 1028.0122950819673 31.390500000000145H1026.792295081967Q1023.8322950819671 31.390500000000145 1019.8722950819671 35.46050000000014Q1018.662295081967 36.71050000000014 1017.5522950819671 38.23050000000012V68.46050000000014H1001.202295081967V27.850500000000125H1017.5522950819671V33.97050000000013Q1023.982295081967 27.170500000000118 1031.932295081967 27.170500000000118Q1042.1922950819671 27.170500000000118 1044.5922950819672 34.77050000000014Q1047.8622950819672 31.01050000000015 1051.792295081967 29.090500000000134Q1055.732295081967 27.170500000000118 1059.7222950819669 27.170500000000118Q1066.5322950819668 27.170500000000118 1069.8022950819673 30.400500000000136T1073.0722950819672 40.17050000000012V68.46050000000014H1056.7622950819673V31.540500000000122Q1056.412295081967 31.390500000000145 1055.042295081967 31.390500000000145Q1053.682295081967 31.390500000000145 1052.522295081967 31.900500000000136T1050.142295081967 33.33050000000014Q1047.482295081967 35.27050000000014 1045.232295081967 38.350500000000125 "></path></g><rect width="630" height="88" x="435" y="0" id="space-saver" fill="transparent" stroke="transparent"></rect></g></svg>